<svg width="126" height="51" viewBox="0 0 126 51" fill="none" xmlns="http://www.w3.org/2000/svg">
<path d="M103.323 35.6L114.123 21.72L123.083 21.36L112.323 35.2L103.323 35.6ZM103.323 39V35.6L112.323 35.2H122.843V39H103.323ZM104.203 26.4V21.72H111.483C110.23 21.72 109.377 21.9867 108.923 22.52C108.47 23.0533 108.243 24 108.243 25.36V26.4H104.203ZM115.563 35.2C116.817 35.2 117.67 34.9333 118.123 34.4C118.577 33.8667 118.803 32.92 118.803 31.56V30.2H122.843V35.2H115.563ZM104.203 21.72V17.96H123.083V21.36L114.123 21.72H104.203Z" fill="black"/>
<path d="M79.8078 35.6L90.6078 21.72L99.5678 21.36L88.8078 35.2L79.8078 35.6ZM79.8078 39V35.6L88.8078 35.2H99.3278V39H79.8078ZM80.6878 26.4V21.72H87.9678C86.7145 21.72 85.8611 21.9867 85.4078 22.52C84.9545 23.0533 84.7278 24 84.7278 25.36V26.4H80.6878ZM92.0478 35.2C93.3011 35.2 94.1545 34.9333 94.6078 34.4C95.0611 33.8667 95.2878 32.92 95.2878 31.56V30.2H99.3278V35.2H92.0478ZM80.6878 21.72V17.96H99.5678V21.36L90.6078 21.72H80.6878Z" fill="black"/>
<path d="M64.2106 39V35.28H67.1306V21.64H64.4906V17.96H74.3306V35.28H76.8506V39H64.2106ZM70.4906 16.44C69.2106 16.44 68.1573 16.0933 67.3306 15.4C66.5306 14.7067 66.1306 13.7467 66.1306 12.52C66.1306 11.2933 66.5306 10.3333 67.3306 9.64C68.1573 8.94667 69.2106 8.6 70.4906 8.6C71.7706 8.6 72.8106 8.94667 73.6106 9.64C74.4106 10.3333 74.8106 11.2933 74.8106 12.52C74.8106 13.7467 74.4106 14.7067 73.6106 15.4C72.8106 16.0933 71.7706 16.44 70.4906 16.44Z" fill="black"/>
<path d="M45.6791 39.44C44.2657 39.44 43.0124 39.1867 41.9191 38.68C40.8524 38.1733 40.0124 37.3867 39.3991 36.32C38.7857 35.2533 38.4791 33.8667 38.4791 32.16V21.64H36.3591V17.96H45.6791V32C45.6791 32.9067 45.9457 33.5867 46.4791 34.04C47.0124 34.4933 47.7057 34.72 48.5591 34.72C49.1724 34.72 49.7191 34.6133 50.1991 34.4C50.7057 34.16 51.1057 33.7867 51.3991 33.28C51.7191 32.7467 51.8791 32.0533 51.8791 31.2L53.0791 31.16C53.0791 32.84 52.8657 34.3067 52.4391 35.56C52.0391 36.7867 51.3057 37.7467 50.2391 38.44C49.1724 39.1067 47.6524 39.44 45.6791 39.44ZM52.7591 39V32.24L51.8791 32.4V21.64H49.2391V17.96H59.1591V35.28H61.7191V39H52.7591Z" fill="black"/>
<path d="M17.4 39.64C14.2266 39.64 11.44 39.08 9.03998 37.96C6.63998 36.84 4.77331 35.2267 3.43998 33.12C2.13331 30.9867 1.47998 28.4 1.47998 25.36C1.47998 22.32 2.13331 19.7467 3.43998 17.64C4.77331 15.5067 6.63998 13.88 9.03998 12.76C11.44 11.64 14.2266 11.08 17.4 11.08C20.6266 11.08 23.4266 11.64 25.8 12.76C28.2 13.88 30.0533 15.5067 31.36 17.64C32.6933 19.7467 33.36 22.32 33.36 25.36C33.36 28.4 32.6933 30.9867 31.36 33.12C30.0533 35.2267 28.2 36.84 25.8 37.96C23.4266 39.08 20.6266 39.64 17.4 39.64ZM17.4 35.68C19.0266 35.68 20.4 35.2933 21.52 34.52C22.6666 33.72 23.5466 32.56 24.16 31.04C24.7733 29.4933 25.08 27.6 25.08 25.36C25.08 23.1733 24.7733 21.32 24.16 19.8C23.5466 18.28 22.6666 17.12 21.52 16.32C20.4 15.52 19.0266 15.12 17.4 15.12C15.8266 15.12 14.4666 15.52 13.32 16.32C12.1733 17.12 11.2933 18.28 10.68 19.8C10.0666 21.32 9.75998 23.1733 9.75998 25.36C9.75998 27.5733 10.0666 29.4533 10.68 31C11.2933 32.52 12.1733 33.68 13.32 34.48C14.4666 35.28 15.8266 35.68 17.4 35.68ZM12.32 32C12.32 30.24 12.7733 28.92 13.68 28.04C14.5866 27.1333 15.8 26.68 17.32 26.68C18.8933 26.68 20.1066 27.1333 20.96 28.04C21.8133 28.92 22.24 30.24 22.24 32V39H17.48V31.4C17.48 30.76 17.2133 30.44 16.68 30.44C16.4133 30.44 16.2 30.5333 16.04 30.72C15.9066 30.88 15.84 31.1067 15.84 31.4V37.8H12.32V32ZM22.32 45.92C20.8266 45.92 19.64 45.4933 18.76 44.64C17.9066 43.7867 17.48 42.5067 17.48 40.8V39H22.24V41.4C22.24 42.04 22.5066 42.36 23.04 42.36C23.3066 42.36 23.5066 42.2667 23.64 42.08C23.7733 41.92 23.84 41.6933 23.84 41.4V39.72H27.12V40.8C27.12 42.5067 26.6933 43.7867 25.84 44.64C24.9866 45.4933 23.8133 45.92 22.32 45.92Z" fill="black"/>
</svg>
